<svg width="1440" height="633" viewBox="0 0 1440 633" fill="none" xmlns="http://www.w3.org/2000/svg">
<path d="M-7 1H-8V2V631V632H-7H1440H1441V631V2V1H1440H-7Z" fill="#FCCFEF" fill-opacity="0.61" stroke="#F000AD" stroke-width="2"/>
<g clip-path="url(#clip0_17_1303)">
<path d="M1000.67 283.701C1008.08 283.701 1014.1 278.466 1014.1 272.009C1014.1 265.551 1008.08 260.317 1000.67 260.317C993.25 260.317 987.238 265.551 987.238 272.009C987.238 278.466 993.25 283.701 1000.67 283.701Z" fill="#F2F2F2"/>
<path d="M379.276 286.58C378.182 287.248 376.934 287.698 375.619 287.9C374.304 288.102 372.954 288.051 371.664 287.749C370.375 287.448 369.177 286.904 368.155 286.156C367.132 285.408 366.311 284.473 365.748 283.419L333.454 286.266L341.275 273.253L370.743 272.545C372.84 271.84 375.161 271.828 377.267 272.514C379.373 273.199 381.117 274.533 382.169 276.263C383.221 277.993 383.507 279.999 382.974 281.9C382.441 283.802 381.125 285.467 379.276 286.58V286.58Z" fill="#FFB6B6"/>
<path d="M286.089 299.387L214.93 273.713C209.292 271.672 204.814 267.768 202.478 262.857C200.142 257.945 200.14 252.427 202.471 247.514V247.514C203.765 244.795 205.731 242.358 208.229 240.375C210.726 238.392 213.695 236.912 216.924 236.04C220.152 235.168 223.562 234.926 226.91 235.33C230.258 235.735 233.463 236.776 236.297 238.38L293.632 270.834L353.301 268.204L357.768 284.382L286.089 299.387Z" fill="#FF63D3"/>
<path d="M272.98 575.387H284.373L289.793 537.125L272.978 537.126L272.98 575.387Z" fill="#FFB6B6"/>
<path d="M269.122 570.494L287.132 569.558V576.276L304.255 586.572C305.1 587.081 305.737 587.811 306.073 588.657C306.408 589.503 306.424 590.42 306.118 591.275C305.812 592.129 305.2 592.876 304.372 593.406C303.545 593.936 302.544 594.222 301.516 594.222H280.074L276.378 587.577L274.935 594.222H266.851L269.122 570.494Z" fill="#2F2E41"/>
<path d="M199.678 575.387H211.071L216.491 537.125L199.676 537.126L199.678 575.387Z" fill="#FFB6B6"/>
<path d="M195.82 570.494L213.83 569.558V576.276L230.953 586.572C231.799 587.081 232.436 587.811 232.771 588.657C233.106 589.503 233.122 590.42 232.816 591.275C232.51 592.129 231.899 592.876 231.071 593.406C230.243 593.936 229.242 594.222 228.214 594.222H206.772L203.076 587.577L201.633 594.222H193.549L195.82 570.494Z" fill="#2F2E41"/>
<path d="M257.273 363.788L301.692 440.515C304.126 444.707 304.879 449.488 303.83 454.096C302.927 458.033 301.542 461.874 299.698 465.554L293.738 527.127L288.397 546.44L269.183 547.867C269.183 547.867 270.671 531.678 265.465 508.977C260.258 486.276 269.183 453.215 269.183 453.215C269.183 453.215 252.81 429.884 234.196 418.21C215.582 406.536 257.273 363.788 257.273 363.788Z" fill="#2F2E41"/>
<path d="M209.632 329.107C209.632 329.107 200.417 343.326 193.61 350.98C187.321 357.911 184.276 366.657 185.088 375.462C185.749 381.758 188.29 388.548 194.746 393.926C194.746 393.926 199.209 403.649 196.977 408.838V454.878C196.977 454.878 185.029 509.24 195.452 525.447L199.952 561.825C199.952 561.825 215.747 565.685 216.491 559.209C216.491 559.209 218.557 544.98 219.352 540.438L219.951 493.912C220.074 487.867 222.229 481.985 226.149 476.994C229.248 473.028 232.347 466.867 232.76 458.107L257.273 363.788L262.73 330.84L209.632 329.107Z" fill="#2F2E41"/>
<path d="M195.912 278.433L205.44 319.911L184.566 362.284L262.546 336.111L263.605 333.61L266.185 325.091L263.128 298.569C264.202 296.621 279.485 284.327 263.501 262.712L246.235 227.426L213.894 226.998L213.76 227.115C206.155 233.724 200.547 241.869 197.433 250.822C194.319 259.776 193.796 269.261 195.912 278.433V278.433Z" fill="#FF63D3"/>
<path d="M243.337 400.347C242.272 399.646 241.396 398.75 240.771 397.723C240.147 396.695 239.788 395.561 239.722 394.4C239.655 393.238 239.881 392.079 240.385 391.002C240.889 389.925 241.658 388.958 242.637 388.168L229.606 362.284L246.231 364.766L256.057 388.966C257.472 390.486 258.198 392.407 258.096 394.362C257.994 396.318 257.071 398.173 255.503 399.575C253.935 400.978 251.831 401.832 249.589 401.974C247.346 402.116 245.122 401.537 243.337 400.347Z" fill="#FFB6B6"/>
<path d="M200.716 327.068L206.92 260.221C207.418 254.923 210.31 250.013 214.961 246.569C219.612 243.125 225.642 241.428 231.728 241.85V241.85C235.098 242.088 238.366 242.968 241.3 244.428C244.235 245.889 246.765 247.894 248.709 250.301C250.654 252.709 251.966 255.459 252.553 258.358C253.139 261.256 252.985 264.232 252.102 267.073L234.241 324.548L255.445 373.18L239.134 381.851L200.716 327.068Z" fill="#FF63D3"/>
<path d="M176.31 229.13L255.251 215.077C257.425 208.764 261.589 202.967 250.092 193.108C248.311 185.522 243.218 178.834 235.886 174.453C228.555 170.071 219.556 168.337 210.785 169.616C192.666 168.212 182.487 179.424 182.54 194.474L176.31 229.13Z" fill="#2F2E41"/>
<path d="M222.342 219.635C237.162 219.635 249.176 209.175 249.176 196.272C249.176 183.369 237.162 172.909 222.342 172.909C207.523 172.909 195.509 183.369 195.509 196.272C195.509 209.175 207.523 219.635 222.342 219.635Z" fill="#FFB8B8"/>
<path d="M202.114 176.727C205.735 172.006 211.352 168.723 217.741 167.592L222.801 166.692C229.243 165.545 235.945 166.673 241.431 169.828C246.918 172.983 250.74 177.907 252.057 183.516V183.516C248.421 187.638 226.863 190.762 214.013 192.124C217.611 203.43 231.446 212.706 229.949 219.581L179.347 228.589L178.312 224.183C169.434 205.595 181.818 186.567 202.114 176.727Z" fill="#2F2E41"/>
<path d="M176.092 230.387L255.032 216.335C257.206 210.021 261.37 204.224 249.873 194.366C248.092 186.78 242.999 180.092 235.667 175.71C228.336 171.328 219.337 169.594 210.566 170.873C192.447 169.469 182.268 180.682 182.321 195.731L176.092 230.387Z" fill="#2F2E41"/>
<path d="M222.123 220.893C236.943 220.893 248.957 210.433 248.957 197.53C248.957 184.626 236.943 174.167 222.123 174.167C207.304 174.167 195.29 184.626 195.29 197.53C195.29 210.433 207.304 220.893 222.123 220.893Z" fill="#FFB8B8"/>
<path d="M201.894 177.985C205.515 173.264 211.133 169.98 217.522 168.85L222.582 167.949C229.024 166.802 235.725 167.93 241.212 171.086C246.698 174.241 250.521 179.164 251.838 184.773V184.773C248.202 188.896 226.644 192.02 213.793 193.381C217.392 204.687 231.227 213.963 229.73 220.838L179.127 229.846L178.093 225.44C169.215 206.853 181.599 187.825 201.894 177.985Z" fill="#2F2E41"/>
<path d="M591.928 398.761H387.258C381.587 398.755 376.15 396.791 372.14 393.3C368.131 389.809 365.875 385.075 365.869 380.138V147.565C365.875 142.627 368.131 137.894 372.141 134.403C376.15 130.912 381.587 128.948 387.258 128.942H591.928C597.598 128.948 603.035 130.912 607.045 134.403C611.054 137.894 613.31 142.627 613.316 147.565V380.138C613.31 385.075 611.055 389.809 607.045 393.3C603.035 396.791 597.598 398.755 591.928 398.761V398.761Z" fill="#F0F0F0"/>
<path d="M591.927 399.66H387.258C381.313 399.654 375.614 397.595 371.41 393.935C367.207 390.275 364.843 385.313 364.836 380.137V147.565C364.843 142.389 367.207 137.427 371.411 133.767C375.614 130.108 381.313 128.049 387.258 128.043H591.927C597.872 128.049 603.571 130.107 607.775 133.767C611.978 137.427 614.343 142.389 614.349 147.565V380.137C614.343 385.313 611.978 390.275 607.775 393.935C603.571 397.595 597.872 399.654 591.927 399.66V399.66ZM387.258 129.842C381.861 129.847 376.687 131.716 372.871 135.039C369.055 138.361 366.908 142.866 366.902 147.565V380.137C366.908 384.836 369.054 389.341 372.871 392.664C376.687 395.986 381.861 397.856 387.258 397.861H591.927C597.324 397.856 602.498 395.987 606.315 392.664C610.131 389.341 612.277 384.836 612.283 380.137V147.565C612.277 142.866 610.131 138.361 606.315 135.038C602.498 131.716 597.324 129.847 591.927 129.842H387.258Z" fill="#FF63D3"/>
<path d="M924.428 398.761H719.758C714.088 398.755 708.651 396.791 704.641 393.3C700.631 389.809 698.376 385.075 698.369 380.138V147.565C698.376 142.627 700.631 137.894 704.641 134.403C708.651 130.912 714.088 128.948 719.758 128.942H924.428C930.099 128.948 935.535 130.912 939.545 134.403C943.555 137.894 945.811 142.627 945.817 147.565V380.138C945.811 385.075 943.555 389.809 939.545 393.3C935.536 396.791 930.099 398.755 924.428 398.761Z" fill="#F0F0F0"/>
<path d="M1021.97 46.8751H315.075C314.801 46.8698 314.54 46.7713 314.348 46.6006C314.156 46.4299 314.049 46.2007 314.049 45.9619C314.049 45.7232 314.156 45.4939 314.348 45.3232C314.54 45.1525 314.801 45.054 315.075 45.0487H1021.97C1022.25 45.054 1022.51 45.1525 1022.7 45.3232C1022.89 45.4939 1023 45.7232 1023 45.9619C1023 46.2007 1022.89 46.4299 1022.7 46.6006C1022.51 46.7713 1022.25 46.8698 1021.97 46.8751Z" fill="#CACACA"/>
<path d="M338.167 34.0903C344.4 34.0903 349.453 29.593 349.453 24.0452C349.453 18.4974 344.4 14 338.167 14C331.934 14 326.881 18.4974 326.881 24.0452C326.881 29.593 331.934 34.0903 338.167 34.0903Z" fill="#3F3D56"/>
<path d="M377.155 34.0903C383.388 34.0903 388.44 29.593 388.44 24.0452C388.44 18.4974 383.388 14 377.155 14C370.922 14 365.869 18.4974 365.869 24.0452C365.869 29.593 370.922 34.0903 377.155 34.0903Z" fill="#3F3D56"/>
<path d="M416.142 34.0903C422.375 34.0903 427.427 29.593 427.427 24.0452C427.427 18.4974 422.375 14 416.142 14C409.909 14 404.856 18.4974 404.856 24.0452C404.856 29.593 409.909 34.0903 416.142 34.0903Z" fill="#3F3D56"/>
<path d="M998.615 20.1443H970.913C970.365 20.1338 969.843 19.9367 969.46 19.5954C969.076 19.254 968.862 18.7954 968.862 18.3179C968.862 17.8404 969.076 17.3819 969.46 17.0405C969.843 16.6991 970.365 16.5021 970.913 16.4915H998.615C999.163 16.5021 999.685 16.6991 1000.07 17.0405C1000.45 17.3819 1000.67 17.8404 1000.67 18.3179C1000.67 18.7954 1000.45 19.254 1000.07 19.5954C999.685 19.9367 999.163 20.1338 998.615 20.1443V20.1443Z" fill="#3F3D56"/>
<path d="M998.615 26.9933H970.913C970.365 26.9828 969.843 26.7857 969.46 26.4443C969.076 26.103 968.862 25.6444 968.862 25.1669C968.862 24.6894 969.076 24.2308 969.46 23.8895C969.843 23.5481 970.365 23.3511 970.913 23.3405H998.615C999.163 23.3511 999.685 23.5481 1000.07 23.8895C1000.45 24.2308 1000.67 24.6894 1000.67 25.1669C1000.67 25.6444 1000.45 26.103 1000.07 26.4443C999.685 26.7857 999.163 26.9828 998.615 26.9933V26.9933Z" fill="#3F3D56"/>
<path d="M998.615 33.8423H970.913C970.365 33.8317 969.843 33.6347 969.46 33.2933C969.076 32.9519 968.862 32.4934 968.862 32.0159C968.862 31.5384 969.076 31.0798 969.46 30.7384C969.843 30.3971 970.365 30.2 970.913 30.1895H998.615C999.163 30.2 999.685 30.3971 1000.07 30.7384C1000.45 31.0798 1000.67 31.5384 1000.67 32.0159C1000.67 32.4934 1000.45 32.9519 1000.07 33.2933C999.685 33.6347 999.163 33.8317 998.615 33.8423V33.8423Z" fill="#3F3D56"/>
<path d="M936.102 124.712L936.081 124.728C934.101 122.975 931.423 121.952 928.601 121.871C925.778 121.79 923.028 122.658 920.921 124.294C918.813 125.93 917.509 128.21 917.278 130.66C917.048 133.11 917.91 135.544 919.684 137.457L919.663 137.473L934.32 151.786L950.759 139.025C952.939 137.333 954.257 134.956 954.424 132.417C954.591 129.878 953.593 127.386 951.65 125.488C949.706 123.59 946.976 122.442 944.06 122.296C941.145 122.151 938.282 123.02 936.102 124.712V124.712Z" fill="#D1D3D4"/>
<path d="M421.04 274.476C420.697 273.815 420.522 273.097 420.527 272.372C420.532 271.647 420.716 270.931 421.067 270.274L433.336 247.308C434.547 243.75 437.328 240.756 441.07 238.981C444.811 237.206 449.209 236.796 453.298 237.839C457.387 238.883 460.834 241.295 462.884 244.548C464.933 247.801 465.417 251.628 464.231 255.192L460.13 280.351C460.013 281.069 459.72 281.756 459.27 282.366C458.82 282.977 458.225 283.496 457.524 283.888C456.823 284.279 456.033 284.535 455.209 284.637C454.384 284.74 453.544 284.686 452.745 284.48L424.677 277.239C423.878 277.034 423.14 276.68 422.512 276.203C421.884 275.726 421.382 275.137 421.04 274.476V274.476Z" fill="#3F3D56"/>
<path d="M554.508 263.018L526.44 270.259C525.641 270.465 524.801 270.519 523.976 270.416C523.152 270.314 522.362 270.058 521.661 269.667C520.96 269.275 520.365 268.756 519.915 268.145C519.465 267.535 519.172 266.848 519.055 266.13L514.954 240.971C513.768 237.407 514.252 233.58 516.302 230.327C518.351 227.074 521.798 224.662 525.887 223.618C529.976 222.575 534.374 222.985 538.115 224.76C541.857 226.535 544.638 229.529 545.849 233.087L558.118 256.053C558.469 256.71 558.653 257.426 558.657 258.151C558.662 258.876 558.487 259.594 558.145 260.255C557.802 260.916 557.3 261.505 556.672 261.982C556.045 262.459 555.307 262.812 554.508 263.018V263.018Z" fill="#3F3D56"/>
<path d="M444.089 242.509L466.1 228.571L502.119 219.859L532.135 225.086L533.899 239.527C536.046 257.093 535.113 274.841 531.134 292.163L530.403 305.512L453.093 307.843L445.089 295.648C445.089 295.648 427.08 279.967 441.087 262.545L444.089 242.509Z" fill="#3F3D56"/>
<path d="M869.761 215.05V230.539L868.023 249.461C868.023 249.461 867.474 265.985 866.81 279.019C866.408 286.942 865.957 293.573 865.563 294.43C865.08 295.479 865.194 298.341 865.473 301.346C865.801 304.822 866.342 308.491 866.432 309.719C866.605 312.01 865.211 321.853 865.211 321.853C865.211 321.853 863.653 346.536 861.391 348.506C859.128 350.476 861.391 356.079 861.391 356.079C850.783 362.889 837.387 354.566 837.387 354.566C840.346 350.462 835.648 322.446 835.648 322.446C835.648 322.446 834.96 312.881 833.567 310.311C832.173 307.742 831.82 291.689 831.82 291.689V267.913C831.82 267.913 828.164 263.045 827.647 260.775C827.131 258.505 827.647 250.482 827.647 250.482L823.827 239.276L821.212 248.055C821.212 248.055 814.44 272.588 813.219 275.614C812.555 277.637 812.801 279.804 813.908 281.674C813.908 281.674 815.654 286.343 813.908 288.484C812.823 289.825 811.992 291.31 811.448 292.881C811.448 292.881 810.554 301.817 808.989 305.015C807.423 308.213 806.037 312.153 806.037 312.153C806.037 312.153 806.406 318.192 804.84 319.555C803.274 320.918 802.758 327.735 802.758 327.735C802.758 327.735 803.102 335.451 801.012 338.177C798.921 340.904 798.921 356.35 798.921 356.35C795.296 358.376 791.118 359.527 786.814 359.686C782.51 359.846 778.235 359.007 774.426 357.257C774.426 357.257 776.492 355.572 774.926 347.721C773.36 339.869 776.049 318.491 776.049 318.491C776.049 318.491 775.704 313.067 777.442 310.64C779.18 308.213 776.565 303.523 777.262 301.403C777.959 299.284 780.049 287.77 780.049 287.77C780.049 287.77 779.18 259.454 779.18 257.941C778.975 255.248 778.138 252.619 776.721 250.218C775.155 247.798 776.721 230.232 776.721 230.232C776.721 230.232 780.41 221.153 779.18 219.183C777.951 217.213 780 213.73 780 213.73C780 213.73 778.09 209.64 780 208.883C781.91 208.126 782.263 205.1 782.263 205.1L783.591 190.41C783.591 190.41 784.091 183.744 785.681 183.444C787.272 183.144 786.575 180.574 788.141 178.754C788.904 177.524 789.43 176.193 789.698 174.814C789.92 173.972 790.125 173.094 790.297 172.252C790.789 169.968 791.092 167.997 791.092 167.997C801.356 175.421 855.324 170.217 855.382 170.217C858.808 170.867 862.883 181.224 865.826 190.253C868.442 198.322 869.766 206.666 869.761 215.05V215.05Z" fill="#3F3D56"/>
<path d="M315.941 596H345.919C346.363 595.298 346.776 594.579 347.158 593.85C350.608 587.42 352.065 580.243 353.46 573.209L355.722 561.787C348.491 566.365 341.263 570.94 334.039 575.512C331.684 577.005 329.277 578.561 327.015 580.243C322.253 583.759 318.141 587.824 316.53 592.987C316.448 593.275 316.365 593.563 316.303 593.85C316.131 594.56 316.01 595.278 315.941 596V596Z" fill="#F0F0F0"/>
<path d="M311.737 593.85C311.735 593.896 311.739 593.941 311.747 593.985C311.848 594.673 312.035 595.348 312.305 596H325.765C326.188 595.31 326.548 594.591 326.839 593.85C327.248 592.862 327.542 591.841 327.717 590.801C328.164 587.272 327.927 583.703 327.015 580.243C326.757 579.118 326.478 577.985 326.199 576.87L324.608 570.502L316.644 581.646C313.979 585.378 311.21 589.488 311.737 593.85Z" fill="#F0F0F0"/>
<path d="M175 594.921C174.999 595.062 175.031 595.202 175.092 595.332C175.153 595.463 175.244 595.582 175.358 595.682C175.472 595.782 175.608 595.862 175.757 595.916C175.907 595.971 176.067 595.999 176.229 596H365.576C365.904 596 366.217 595.887 366.449 595.685C366.68 595.484 366.811 595.21 366.811 594.925C366.811 594.64 366.68 594.367 366.449 594.165C366.217 593.964 365.904 593.85 365.576 593.85H176.229C175.903 593.851 175.591 593.964 175.361 594.165C175.13 594.365 175.001 594.637 175 594.921Z" fill="#CACACA"/>
<path d="M485.971 427.544C506.402 427.544 522.964 413.124 522.964 395.336C522.964 377.548 506.402 363.128 485.971 363.128C465.541 363.128 448.979 377.548 448.979 395.336C448.979 413.124 465.541 427.544 485.971 427.544Z" fill="#FF63D3"/>
<path d="M480.925 412.099C480.286 412.099 479.656 411.969 479.085 411.72C478.513 411.472 478.016 411.11 477.633 410.665L467.541 398.949C467.216 398.573 466.979 398.145 466.844 397.688C466.71 397.232 466.679 396.758 466.756 396.291C466.832 395.825 467.013 395.377 467.288 394.971C467.563 394.566 467.928 394.212 468.361 393.93C468.793 393.647 469.286 393.442 469.81 393.325C470.334 393.208 470.879 393.183 471.414 393.249C471.95 393.316 472.465 393.475 472.93 393.715C473.395 393.955 473.801 394.273 474.125 394.65L480.727 402.315L497.685 380.168C497.984 379.775 498.369 379.437 498.819 379.174C499.268 378.91 499.772 378.727 500.303 378.634C500.834 378.541 501.38 378.539 501.912 378.631C502.443 378.722 502.948 378.903 503.399 379.165C503.849 379.426 504.236 379.763 504.537 380.155C504.838 380.546 505.047 380.986 505.153 381.449C505.258 381.911 505.258 382.387 505.151 382.849C505.045 383.312 504.835 383.751 504.533 384.143L484.349 410.503C483.984 410.98 483.493 411.374 482.917 411.651C482.341 411.928 481.697 412.081 481.039 412.098C481.001 412.098 480.963 412.099 480.925 412.099Z" fill="white"/>
<path d="M615.382 492.677C622.799 492.677 628.811 487.442 628.811 480.985C628.811 474.527 622.799 469.292 615.382 469.292C607.966 469.292 601.953 474.527 601.953 480.985C601.953 487.442 607.966 492.677 615.382 492.677Z" fill="#F2F2F2"/>
<path d="M721.666 492.677C729.083 492.677 735.095 487.442 735.095 480.985C735.095 474.527 729.083 469.292 721.666 469.292C714.25 469.292 708.237 474.527 708.237 480.985C708.237 487.442 714.25 492.677 721.666 492.677Z" fill="#F2F2F2"/>
<path d="M664.964 492.677C672.38 492.677 678.392 487.442 678.392 480.985C678.392 474.527 672.38 469.292 664.964 469.292C657.547 469.292 651.535 474.527 651.535 480.985C651.535 487.442 657.547 492.677 664.964 492.677Z" fill="#F2F2F2"/>
</g>
<path d="M713.895 575.203H707.086L705.023 579H701.391L711.105 561.82H715.031L717.82 579H714.469L713.895 575.203ZM713.461 572.344L712.465 565.43L708.316 572.344H713.461ZM719.941 579L723.539 561.82H726.891L723.305 579H719.941ZM726.621 579L730.219 561.82H733.57L729.984 579H726.621ZM735.902 566.555H739.266L737.73 573.926C737.543 574.809 737.449 575.359 737.449 575.578C737.449 575.938 737.582 576.246 737.848 576.504C738.113 576.762 738.453 576.891 738.867 576.891C739.164 576.891 739.457 576.836 739.746 576.727C740.035 576.609 740.332 576.438 740.637 576.211C740.941 575.977 741.215 575.711 741.457 575.414C741.699 575.117 741.926 574.727 742.137 574.242C742.285 573.883 742.445 573.297 742.617 572.484L743.859 566.555H747.223L744.621 579H741.48L741.832 577.312C740.457 578.633 738.961 579.293 737.344 579.293C736.32 579.293 735.516 579 734.93 578.414C734.344 577.828 734.051 577.043 734.051 576.059C734.051 575.629 734.184 574.773 734.449 573.492L735.902 566.555ZM747.938 579L751.535 561.82H754.898L753.023 570.762L757.406 566.555H761.777L756.773 571.078L759.434 579H756.07L754.359 573.246L752.086 575.262L751.301 579H747.938ZM763.852 566.555H767.016L766.699 568.066C767.934 566.863 769.23 566.262 770.59 566.262C771.527 566.262 772.25 566.457 772.758 566.848C773.266 567.238 773.59 567.777 773.73 568.465C774.16 567.84 774.777 567.316 775.582 566.895C776.387 566.473 777.223 566.262 778.09 566.262C779.082 566.262 779.855 566.527 780.41 567.059C780.965 567.59 781.242 568.293 781.242 569.168C781.242 569.598 781.133 570.34 780.914 571.395L779.32 579H775.957L777.551 571.395C777.746 570.441 777.844 569.902 777.844 569.777C777.844 569.434 777.738 569.164 777.527 568.969C777.324 568.766 777.016 568.664 776.602 568.664C775.766 568.664 775.02 569.105 774.363 569.988C773.887 570.621 773.48 571.742 773.145 573.352L771.961 579H768.598L770.168 571.477C770.348 570.609 770.438 570.047 770.438 569.789C770.438 569.461 770.324 569.191 770.098 568.98C769.879 568.77 769.574 568.664 769.184 568.664C768.816 568.664 768.438 568.773 768.047 568.992C767.656 569.211 767.312 569.512 767.016 569.895C766.727 570.277 766.477 570.77 766.266 571.371C766.172 571.652 766.02 572.289 765.809 573.281L764.613 579H761.25L763.852 566.555ZM787.453 570.082L784.172 569.801C784.547 568.691 785.199 567.824 786.129 567.199C787.066 566.574 788.305 566.262 789.844 566.262C791.445 566.262 792.629 566.586 793.395 567.234C794.16 567.875 794.543 568.66 794.543 569.59C794.543 569.965 794.508 570.363 794.438 570.785C794.375 571.207 794.145 572.316 793.746 574.113C793.418 575.598 793.254 576.637 793.254 577.23C793.254 577.762 793.348 578.352 793.535 579H790.266C790.133 578.547 790.051 578.078 790.02 577.594C789.527 578.141 788.961 578.562 788.32 578.859C787.68 579.148 787.035 579.293 786.387 579.293C785.355 579.293 784.504 578.957 783.832 578.285C783.16 577.605 782.824 576.734 782.824 575.672C782.824 574.484 783.191 573.535 783.926 572.824C784.668 572.113 785.988 571.684 787.887 571.535C789.488 571.402 790.559 571.242 791.098 571.055C791.238 570.586 791.309 570.211 791.309 569.93C791.309 569.57 791.164 569.27 790.875 569.027C790.586 568.785 790.156 568.664 789.586 568.664C788.984 568.664 788.508 568.789 788.156 569.039C787.812 569.281 787.578 569.629 787.453 570.082ZM790.652 573.199C790.449 573.254 790.18 573.305 789.844 573.352C788.156 573.555 787.055 573.852 786.539 574.242C786.172 574.523 785.988 574.902 785.988 575.379C785.988 575.77 786.129 576.102 786.41 576.375C786.691 576.641 787.062 576.773 787.523 576.773C788.031 576.773 788.508 576.652 788.953 576.41C789.406 576.16 789.742 575.844 789.961 575.461C790.188 575.07 790.387 574.465 790.559 573.645L790.652 573.199ZM798.715 566.555H801.902L801.574 568.172C802.371 567.484 803.113 566.996 803.801 566.707C804.496 566.41 805.227 566.262 805.992 566.262C807.016 566.262 807.82 566.555 808.406 567.141C809 567.727 809.297 568.504 809.297 569.473C809.297 569.91 809.168 570.738 808.91 571.957L807.445 579H804.082L805.559 571.934C805.777 570.879 805.887 570.25 805.887 570.047C805.887 569.617 805.758 569.281 805.5 569.039C805.25 568.789 804.898 568.664 804.445 568.664C803.953 568.664 803.406 568.871 802.805 569.285C802.203 569.699 801.73 570.246 801.387 570.926C801.137 571.41 800.855 572.398 800.543 573.891L799.477 579H796.113L798.715 566.555ZM813.387 566.555H816.574L816.246 568.172C817.043 567.484 817.785 566.996 818.473 566.707C819.168 566.41 819.898 566.262 820.664 566.262C821.688 566.262 822.492 566.555 823.078 567.141C823.672 567.727 823.969 568.504 823.969 569.473C823.969 569.91 823.84 570.738 823.582 571.957L822.117 579H818.754L820.23 571.934C820.449 570.879 820.559 570.25 820.559 570.047C820.559 569.617 820.43 569.281 820.172 569.039C819.922 568.789 819.57 568.664 819.117 568.664C818.625 568.664 818.078 568.871 817.477 569.285C816.875 569.699 816.402 570.246 816.059 570.926C815.809 571.41 815.527 572.398 815.215 573.891L814.148 579H810.785L813.387 566.555ZM828.996 561.82H832.359L831.727 564.867H828.363L828.996 561.82ZM828.012 566.555H831.375L828.773 579H825.41L828.012 566.555ZM833.133 566.555H836.484L837.328 572.754C837.539 574.348 837.656 575.465 837.68 576.105C838.117 574.832 838.719 573.488 839.484 572.074L842.461 566.555H846.023L838.336 580.219C837.703 581.352 837.203 582.145 836.836 582.598C836.477 583.051 836.039 583.406 835.523 583.664C835.016 583.922 834.402 584.051 833.684 584.051C832.973 584.051 832.172 583.926 831.281 583.676L831.574 581.168C831.98 581.285 832.375 581.344 832.758 581.344C833.789 581.344 834.637 580.562 835.301 579L833.133 566.555ZM859.371 573.434L862.734 573.258C862.781 574.328 862.965 575.051 863.285 575.426C863.801 576.035 864.754 576.34 866.145 576.34C867.301 576.34 868.137 576.133 868.652 575.719C869.168 575.305 869.426 574.805 869.426 574.219C869.426 573.711 869.215 573.281 868.793 572.93C868.496 572.672 867.68 572.254 866.344 571.676C865.016 571.098 864.043 570.617 863.426 570.234C862.816 569.844 862.336 569.34 861.984 568.723C861.633 568.105 861.457 567.383 861.457 566.555C861.457 565.109 861.98 563.91 863.027 562.957C864.074 562.004 865.59 561.527 867.574 561.527C869.59 561.527 871.148 562 872.25 562.945C873.359 563.891 873.969 565.148 874.078 566.719L870.691 566.871C870.605 566.051 870.309 565.422 869.801 564.984C869.293 564.547 868.543 564.328 867.551 564.328C866.574 564.328 865.875 564.5 865.453 564.844C865.039 565.188 864.832 565.621 864.832 566.145C864.832 566.637 865.023 567.043 865.406 567.363C865.789 567.691 866.637 568.141 867.949 568.711C869.926 569.562 871.184 570.254 871.723 570.785C872.527 571.566 872.93 572.57 872.93 573.797C872.93 575.312 872.328 576.609 871.125 577.688C869.93 578.758 868.262 579.293 866.121 579.293C864.645 579.293 863.363 579.047 862.277 578.555C861.199 578.055 860.438 577.363 859.992 576.48C859.547 575.598 859.34 574.582 859.371 573.434ZM875.66 569.051L876.176 566.555H877.816L878.227 564.562L882.082 562.242L881.18 566.555H883.23L882.715 569.051H880.652L879.562 574.266C879.367 575.211 879.27 575.75 879.27 575.883C879.27 576.141 879.352 576.344 879.516 576.492C879.68 576.633 879.977 576.703 880.406 576.703C880.555 576.703 880.926 576.676 881.52 576.621L880.992 579.117C880.414 579.234 879.82 579.293 879.211 579.293C878.023 579.293 877.16 579.066 876.621 578.613C876.082 578.152 875.812 577.516 875.812 576.703C875.812 576.32 875.957 575.438 876.246 574.055L877.289 569.051H875.66ZM883.301 573.832C883.301 571.527 883.949 569.691 885.246 568.324C886.551 566.949 888.262 566.262 890.379 566.262C892.215 566.262 893.648 566.77 894.68 567.785C895.711 568.793 896.227 570.152 896.227 571.863C896.227 573.879 895.582 575.621 894.293 577.09C893.004 578.559 891.277 579.293 889.113 579.293C887.941 579.293 886.902 579.059 885.996 578.59C885.09 578.121 884.414 577.457 883.969 576.598C883.523 575.738 883.301 574.816 883.301 573.832ZM892.887 571.43C892.887 570.633 892.652 569.996 892.184 569.52C891.723 569.035 891.125 568.793 890.391 568.793C889.664 568.793 889.02 569.02 888.457 569.473C887.895 569.918 887.457 570.57 887.145 571.43C886.832 572.281 886.676 573.066 886.676 573.785C886.676 574.676 886.918 575.383 887.402 575.906C887.887 576.43 888.496 576.691 889.23 576.691C890.152 576.691 890.926 576.297 891.551 575.508C892.441 574.391 892.887 573.031 892.887 571.43ZM899.895 566.555H903.035L902.531 568.969C903.703 567.164 904.973 566.262 906.34 566.262C906.824 566.262 907.344 566.383 907.898 566.625L906.609 569.379C906.305 569.27 905.98 569.215 905.637 569.215C905.059 569.215 904.469 569.434 903.867 569.871C903.273 570.309 902.809 570.895 902.473 571.629C902.137 572.355 901.805 573.512 901.477 575.098L900.656 579H897.293L899.895 566.555ZM918.949 573.82H910.512C910.504 573.953 910.5 574.055 910.5 574.125C910.5 574.953 910.734 575.621 911.203 576.129C911.68 576.637 912.258 576.891 912.938 576.891C914.055 576.891 914.926 576.312 915.551 575.156L918.562 575.66C917.977 576.871 917.191 577.781 916.207 578.391C915.23 578.992 914.133 579.293 912.914 579.293C911.242 579.293 909.883 578.766 908.836 577.711C907.789 576.648 907.266 575.246 907.266 573.504C907.266 571.801 907.738 570.285 908.684 568.957C909.973 567.16 911.812 566.262 914.203 566.262C915.727 566.262 916.938 566.734 917.836 567.68C918.734 568.617 919.184 569.934 919.184 571.629C919.184 572.441 919.105 573.172 918.949 573.82ZM916.113 571.77C916.121 571.621 916.125 571.508 916.125 571.43C916.125 570.508 915.918 569.816 915.504 569.355C915.09 568.895 914.535 568.664 913.84 568.664C913.145 568.664 912.52 568.926 911.965 569.449C911.418 569.973 911.047 570.746 910.852 571.77H916.113ZM929.367 566.555H932.531L932.215 568.066C933.449 566.863 934.746 566.262 936.105 566.262C937.043 566.262 937.766 566.457 938.273 566.848C938.781 567.238 939.105 567.777 939.246 568.465C939.676 567.84 940.293 567.316 941.098 566.895C941.902 566.473 942.738 566.262 943.605 566.262C944.598 566.262 945.371 566.527 945.926 567.059C946.48 567.59 946.758 568.293 946.758 569.168C946.758 569.598 946.648 570.34 946.43 571.395L944.836 579H941.473L943.066 571.395C943.262 570.441 943.359 569.902 943.359 569.777C943.359 569.434 943.254 569.164 943.043 568.969C942.84 568.766 942.531 568.664 942.117 568.664C941.281 568.664 940.535 569.105 939.879 569.988C939.402 570.621 938.996 571.742 938.66 573.352L937.477 579H934.113L935.684 571.477C935.863 570.609 935.953 570.047 935.953 569.789C935.953 569.461 935.84 569.191 935.613 568.98C935.395 568.77 935.09 568.664 934.699 568.664C934.332 568.664 933.953 568.773 933.562 568.992C933.172 569.211 932.828 569.512 932.531 569.895C932.242 570.277 931.992 570.77 931.781 571.371C931.688 571.652 931.535 572.289 931.324 573.281L930.129 579H926.766L929.367 566.555ZM952.969 570.082L949.688 569.801C950.062 568.691 950.715 567.824 951.645 567.199C952.582 566.574 953.82 566.262 955.359 566.262C956.961 566.262 958.145 566.586 958.91 567.234C959.676 567.875 960.059 568.66 960.059 569.59C960.059 569.965 960.023 570.363 959.953 570.785C959.891 571.207 959.66 572.316 959.262 574.113C958.934 575.598 958.77 576.637 958.77 577.23C958.77 577.762 958.863 578.352 959.051 579H955.781C955.648 578.547 955.566 578.078 955.535 577.594C955.043 578.141 954.477 578.562 953.836 578.859C953.195 579.148 952.551 579.293 951.902 579.293C950.871 579.293 950.02 578.957 949.348 578.285C948.676 577.605 948.34 576.734 948.34 575.672C948.34 574.484 948.707 573.535 949.441 572.824C950.184 572.113 951.504 571.684 953.402 571.535C955.004 571.402 956.074 571.242 956.613 571.055C956.754 570.586 956.824 570.211 956.824 569.93C956.824 569.57 956.68 569.27 956.391 569.027C956.102 568.785 955.672 568.664 955.102 568.664C954.5 568.664 954.023 568.789 953.672 569.039C953.328 569.281 953.094 569.629 952.969 570.082ZM956.168 573.199C955.965 573.254 955.695 573.305 955.359 573.352C953.672 573.555 952.57 573.852 952.055 574.242C951.688 574.523 951.504 574.902 951.504 575.379C951.504 575.77 951.645 576.102 951.926 576.375C952.207 576.641 952.578 576.773 953.039 576.773C953.547 576.773 954.023 576.652 954.469 576.41C954.922 576.16 955.258 575.844 955.477 575.461C955.703 575.07 955.902 574.465 956.074 573.645L956.168 573.199ZM961.523 579L965.121 561.82H968.484L966.609 570.762L970.992 566.555H975.363L970.359 571.078L973.02 579H969.656L967.945 573.246L965.672 575.262L964.887 579H961.523ZM987.059 573.82H978.621C978.613 573.953 978.609 574.055 978.609 574.125C978.609 574.953 978.844 575.621 979.312 576.129C979.789 576.637 980.367 576.891 981.047 576.891C982.164 576.891 983.035 576.312 983.66 575.156L986.672 575.66C986.086 576.871 985.301 577.781 984.316 578.391C983.34 578.992 982.242 579.293 981.023 579.293C979.352 579.293 977.992 578.766 976.945 577.711C975.898 576.648 975.375 575.246 975.375 573.504C975.375 571.801 975.848 570.285 976.793 568.957C978.082 567.16 979.922 566.262 982.312 566.262C983.836 566.262 985.047 566.734 985.945 567.68C986.844 568.617 987.293 569.934 987.293 571.629C987.293 572.441 987.215 573.172 987.059 573.82ZM984.223 571.77C984.23 571.621 984.234 571.508 984.234 571.43C984.234 570.508 984.027 569.816 983.613 569.355C983.199 568.895 982.645 568.664 981.949 568.664C981.254 568.664 980.629 568.926 980.074 569.449C979.527 569.973 979.156 570.746 978.961 571.77H984.223ZM996.023 566.555H999.375L1000.22 572.754C1000.43 574.348 1000.55 575.465 1000.57 576.105C1001.01 574.832 1001.61 573.488 1002.38 572.074L1005.35 566.555H1008.91L1001.23 580.219C1000.59 581.352 1000.09 582.145 999.727 582.598C999.367 583.051 998.93 583.406 998.414 583.664C997.906 583.922 997.293 584.051 996.574 584.051C995.863 584.051 995.062 583.926 994.172 583.676L994.465 581.168C994.871 581.285 995.266 581.344 995.648 581.344C996.68 581.344 997.527 580.562 998.191 579L996.023 566.555ZM1008.83 573.832C1008.83 571.527 1009.48 569.691 1010.78 568.324C1012.08 566.949 1013.79 566.262 1015.91 566.262C1017.75 566.262 1019.18 566.77 1020.21 567.785C1021.24 568.793 1021.76 570.152 1021.76 571.863C1021.76 573.879 1021.11 575.621 1019.82 577.09C1018.54 578.559 1016.81 579.293 1014.64 579.293C1013.47 579.293 1012.43 579.059 1011.53 578.59C1010.62 578.121 1009.95 577.457 1009.5 576.598C1009.05 575.738 1008.83 574.816 1008.83 573.832ZM1018.42 571.43C1018.42 570.633 1018.18 569.996 1017.71 569.52C1017.25 569.035 1016.66 568.793 1015.92 568.793C1015.2 568.793 1014.55 569.02 1013.99 569.473C1013.43 569.918 1012.99 570.57 1012.68 571.43C1012.36 572.281 1012.21 573.066 1012.21 573.785C1012.21 574.676 1012.45 575.383 1012.93 575.906C1013.42 576.43 1014.03 576.691 1014.76 576.691C1015.68 576.691 1016.46 576.297 1017.08 575.508C1017.97 574.391 1018.42 573.031 1018.42 571.43ZM1025.59 566.555H1028.95L1027.42 573.926C1027.23 574.809 1027.14 575.359 1027.14 575.578C1027.14 575.938 1027.27 576.246 1027.54 576.504C1027.8 576.762 1028.14 576.891 1028.55 576.891C1028.85 576.891 1029.14 576.836 1029.43 576.727C1029.72 576.609 1030.02 576.438 1030.32 576.211C1030.63 575.977 1030.9 575.711 1031.14 575.414C1031.39 575.117 1031.61 574.727 1031.82 574.242C1031.97 573.883 1032.13 573.297 1032.3 572.484L1033.55 566.555H1036.91L1034.31 579H1031.17L1031.52 577.312C1030.14 578.633 1028.65 579.293 1027.03 579.293C1026.01 579.293 1025.2 579 1024.62 578.414C1024.03 577.828 1023.74 577.043 1023.74 576.059C1023.74 575.629 1023.87 574.773 1024.14 573.492L1025.59 566.555ZM1043.93 575.52L1047.19 575.004C1047.48 575.691 1047.84 576.18 1048.27 576.469C1048.7 576.75 1049.28 576.891 1050.02 576.891C1050.79 576.891 1051.4 576.719 1051.86 576.375C1052.18 576.141 1052.34 575.855 1052.34 575.52C1052.34 575.293 1052.26 575.09 1052.1 574.91C1051.93 574.738 1051.46 574.527 1050.7 574.277C1048.67 573.605 1047.41 573.074 1046.93 572.684C1046.17 572.074 1045.79 571.277 1045.79 570.293C1045.79 569.309 1046.16 568.461 1046.89 567.75C1047.92 566.758 1049.44 566.262 1051.45 566.262C1053.05 566.262 1054.27 566.555 1055.09 567.141C1055.91 567.727 1056.43 568.52 1056.64 569.52L1053.54 570.059C1053.38 569.605 1053.11 569.266 1052.74 569.039C1052.24 568.734 1051.64 568.582 1050.94 568.582C1050.23 568.582 1049.73 568.699 1049.41 568.934C1049.11 569.168 1048.96 569.438 1048.96 569.742C1048.96 570.055 1049.11 570.312 1049.43 570.516C1049.62 570.641 1050.25 570.859 1051.31 571.172C1052.95 571.648 1054.05 572.117 1054.61 572.578C1055.39 573.227 1055.78 574.008 1055.78 574.922C1055.78 576.102 1055.28 577.125 1054.29 577.992C1053.3 578.859 1051.9 579.293 1050.09 579.293C1048.3 579.293 1046.91 578.965 1045.92 578.309C1044.95 577.645 1044.28 576.715 1043.93 575.52ZM1061.13 579H1057.77L1061.37 561.82H1064.73L1063.44 567.938C1064.2 567.344 1064.91 566.918 1065.56 566.66C1066.22 566.395 1066.92 566.262 1067.67 566.262C1068.68 566.262 1069.48 566.551 1070.06 567.129C1070.65 567.707 1070.94 568.465 1070.94 569.402C1070.94 569.902 1070.83 570.676 1070.61 571.723L1069.09 579H1065.73L1067.29 571.582C1067.45 570.777 1067.53 570.262 1067.53 570.035C1067.53 569.621 1067.4 569.289 1067.14 569.039C1066.89 568.789 1066.54 568.664 1066.09 568.664C1065.53 568.664 1064.99 568.859 1064.47 569.25C1063.8 569.766 1063.29 570.398 1062.94 571.148C1062.74 571.562 1062.48 572.535 1062.16 574.066L1061.13 579ZM1072.89 573.832C1072.89 571.527 1073.54 569.691 1074.83 568.324C1076.14 566.949 1077.85 566.262 1079.96 566.262C1081.8 566.262 1083.23 566.77 1084.27 567.785C1085.3 568.793 1085.81 570.152 1085.81 571.863C1085.81 573.879 1085.17 575.621 1083.88 577.09C1082.59 578.559 1080.86 579.293 1078.7 579.293C1077.53 579.293 1076.49 579.059 1075.58 578.59C1074.68 578.121 1074 577.457 1073.55 576.598C1073.11 575.738 1072.89 574.816 1072.89 573.832ZM1082.47 571.43C1082.47 570.633 1082.24 569.996 1081.77 569.52C1081.31 569.035 1080.71 568.793 1079.98 568.793C1079.25 568.793 1078.61 569.02 1078.04 569.473C1077.48 569.918 1077.04 570.57 1076.73 571.43C1076.42 572.281 1076.26 573.066 1076.26 573.785C1076.26 574.676 1076.5 575.383 1076.99 575.906C1077.47 576.43 1078.08 576.691 1078.82 576.691C1079.74 576.691 1080.51 576.297 1081.14 575.508C1082.03 574.391 1082.47 573.031 1082.47 571.43ZM1089.56 566.555H1092.75L1092.48 567.832C1093.16 567.27 1093.8 566.867 1094.39 566.625C1094.98 566.383 1095.62 566.262 1096.3 566.262C1097.61 566.262 1098.65 566.711 1099.44 567.609C1100.24 568.508 1100.64 569.848 1100.64 571.629C1100.64 573.871 1099.95 575.766 1098.59 577.312C1097.41 578.633 1096.03 579.293 1094.43 579.293C1092.78 579.293 1091.53 578.625 1090.69 577.289L1089.34 583.746H1085.98L1089.56 566.555ZM1091.59 573.691C1091.59 574.66 1091.82 575.414 1092.29 575.953C1092.77 576.484 1093.33 576.75 1093.97 576.75C1094.52 576.75 1095.06 576.551 1095.57 576.152C1096.09 575.746 1096.52 575.078 1096.85 574.148C1097.2 573.211 1097.37 572.344 1097.37 571.547C1097.37 570.617 1097.14 569.906 1096.7 569.414C1096.25 568.914 1095.69 568.664 1095 568.664C1094.36 568.664 1093.77 568.895 1093.24 569.355C1092.72 569.809 1092.31 570.48 1092.02 571.371C1091.73 572.254 1091.59 573.027 1091.59 573.691ZM1113.16 570.082L1109.88 569.801C1110.26 568.691 1110.91 567.824 1111.84 567.199C1112.78 566.574 1114.02 566.262 1115.55 566.262C1117.16 566.262 1118.34 566.586 1119.11 567.234C1119.87 567.875 1120.25 568.66 1120.25 569.59C1120.25 569.965 1120.22 570.363 1120.15 570.785C1120.09 571.207 1119.86 572.316 1119.46 574.113C1119.13 575.598 1118.96 576.637 1118.96 577.23C1118.96 577.762 1119.06 578.352 1119.25 579H1115.98C1115.84 578.547 1115.76 578.078 1115.73 577.594C1115.24 578.141 1114.67 578.562 1114.03 578.859C1113.39 579.148 1112.75 579.293 1112.1 579.293C1111.07 579.293 1110.21 578.957 1109.54 578.285C1108.87 577.605 1108.54 576.734 1108.54 575.672C1108.54 574.484 1108.9 573.535 1109.64 572.824C1110.38 572.113 1111.7 571.684 1113.6 571.535C1115.2 571.402 1116.27 571.242 1116.81 571.055C1116.95 570.586 1117.02 570.211 1117.02 569.93C1117.02 569.57 1116.88 569.27 1116.59 569.027C1116.3 568.785 1115.87 568.664 1115.3 568.664C1114.7 568.664 1114.22 568.789 1113.87 569.039C1113.52 569.281 1113.29 569.629 1113.16 570.082ZM1116.36 573.199C1116.16 573.254 1115.89 573.305 1115.55 573.352C1113.87 573.555 1112.77 573.852 1112.25 574.242C1111.88 574.523 1111.7 574.902 1111.7 575.379C1111.7 575.77 1111.84 576.102 1112.12 576.375C1112.4 576.641 1112.77 576.773 1113.23 576.773C1113.74 576.773 1114.22 576.652 1114.66 576.41C1115.12 576.16 1115.45 575.844 1115.67 575.461C1115.9 575.07 1116.1 574.465 1116.27 573.645L1116.36 573.199ZM1122.62 569.051L1123.14 566.555H1124.78L1125.19 564.562L1129.04 562.242L1128.14 566.555H1130.19L1129.68 569.051H1127.61L1126.52 574.266C1126.33 575.211 1126.23 575.75 1126.23 575.883C1126.23 576.141 1126.31 576.344 1126.48 576.492C1126.64 576.633 1126.94 576.703 1127.37 576.703C1127.52 576.703 1127.89 576.676 1128.48 576.621L1127.95 579.117C1127.38 579.234 1126.78 579.293 1126.17 579.293C1124.98 579.293 1124.12 579.066 1123.58 578.613C1123.04 578.152 1122.77 577.516 1122.77 576.703C1122.77 576.32 1122.92 575.438 1123.21 574.055L1124.25 569.051H1122.62ZM1148.92 572.812L1152.48 573.352C1151.79 575.281 1150.74 576.758 1149.35 577.781C1147.96 578.797 1146.33 579.305 1144.46 579.305C1142.36 579.305 1140.72 578.672 1139.53 577.406C1138.35 576.141 1137.76 574.305 1137.76 571.898C1137.76 569.945 1138.16 568.16 1138.95 566.543C1139.74 564.918 1140.84 563.676 1142.25 562.816C1143.66 561.957 1145.19 561.527 1146.84 561.527C1148.7 561.527 1150.21 562.027 1151.36 563.027C1152.5 564.02 1153.18 565.375 1153.38 567.094L1150 567.422C1149.81 566.422 1149.45 565.699 1148.91 565.254C1148.38 564.801 1147.66 564.574 1146.77 564.574C1145.8 564.574 1144.88 564.871 1144.03 565.465C1143.19 566.059 1142.51 566.988 1142 568.254C1141.5 569.512 1141.24 570.77 1141.24 572.027C1141.24 573.402 1141.57 574.465 1142.23 575.215C1142.89 575.965 1143.71 576.34 1144.7 576.34C1145.61 576.34 1146.45 576.043 1147.21 575.449C1147.97 574.855 1148.54 573.977 1148.92 572.812ZM1157.2 579H1153.84L1157.44 561.82H1160.8L1159.51 567.938C1160.27 567.344 1160.98 566.918 1161.63 566.66C1162.29 566.395 1162.99 566.262 1163.74 566.262C1164.75 566.262 1165.55 566.551 1166.13 567.129C1166.72 567.707 1167.01 568.465 1167.01 569.402C1167.01 569.902 1166.9 570.676 1166.68 571.723L1165.16 579H1161.8L1163.36 571.582C1163.52 570.777 1163.6 570.262 1163.6 570.035C1163.6 569.621 1163.47 569.289 1163.21 569.039C1162.96 568.789 1162.61 568.664 1162.16 568.664C1161.6 568.664 1161.06 568.859 1160.54 569.25C1159.87 569.766 1159.36 570.398 1159.01 571.148C1158.81 571.562 1158.55 572.535 1158.23 574.066L1157.2 579ZM1180.58 573.82H1172.14C1172.14 573.953 1172.13 574.055 1172.13 574.125C1172.13 574.953 1172.37 575.621 1172.84 576.129C1173.31 576.637 1173.89 576.891 1174.57 576.891C1175.69 576.891 1176.56 576.312 1177.18 575.156L1180.2 575.66C1179.61 576.871 1178.82 577.781 1177.84 578.391C1176.86 578.992 1175.77 579.293 1174.55 579.293C1172.88 579.293 1171.52 578.766 1170.47 577.711C1169.42 576.648 1168.9 575.246 1168.9 573.504C1168.9 571.801 1169.37 570.285 1170.32 568.957C1171.61 567.16 1173.45 566.262 1175.84 566.262C1177.36 566.262 1178.57 566.734 1179.47 567.68C1180.37 568.617 1180.82 569.934 1180.82 571.629C1180.82 572.441 1180.74 573.172 1180.58 573.82ZM1177.75 571.77C1177.75 571.621 1177.76 571.508 1177.76 571.43C1177.76 570.508 1177.55 569.816 1177.14 569.355C1176.72 568.895 1176.17 568.664 1175.47 568.664C1174.78 568.664 1174.15 568.926 1173.6 569.449C1173.05 569.973 1172.68 570.746 1172.48 571.77H1177.75ZM1186.57 570.082L1183.29 569.801C1183.66 568.691 1184.32 567.824 1185.25 567.199C1186.18 566.574 1187.42 566.262 1188.96 566.262C1190.56 566.262 1191.75 566.586 1192.51 567.234C1193.28 567.875 1193.66 568.66 1193.66 569.59C1193.66 569.965 1193.62 570.363 1193.55 570.785C1193.49 571.207 1193.26 572.316 1192.86 574.113C1192.54 575.598 1192.37 576.637 1192.37 577.23C1192.37 577.762 1192.46 578.352 1192.65 579H1189.38C1189.25 578.547 1189.17 578.078 1189.14 577.594C1188.64 578.141 1188.08 578.562 1187.44 578.859C1186.8 579.148 1186.15 579.293 1185.5 579.293C1184.47 579.293 1183.62 578.957 1182.95 578.285C1182.28 577.605 1181.94 576.734 1181.94 575.672C1181.94 574.484 1182.31 573.535 1183.04 572.824C1183.79 572.113 1185.11 571.684 1187 571.535C1188.61 571.402 1189.68 571.242 1190.21 571.055C1190.36 570.586 1190.43 570.211 1190.43 569.93C1190.43 569.57 1190.28 569.27 1189.99 569.027C1189.7 568.785 1189.27 568.664 1188.7 568.664C1188.1 568.664 1187.62 568.789 1187.27 569.039C1186.93 569.281 1186.7 569.629 1186.57 570.082ZM1189.77 573.199C1189.57 573.254 1189.3 573.305 1188.96 573.352C1187.27 573.555 1186.17 573.852 1185.66 574.242C1185.29 574.523 1185.11 574.902 1185.11 575.379C1185.11 575.77 1185.25 576.102 1185.53 576.375C1185.81 576.641 1186.18 576.773 1186.64 576.773C1187.15 576.773 1187.62 576.652 1188.07 576.41C1188.52 576.16 1188.86 575.844 1189.08 575.461C1189.3 575.07 1189.5 574.465 1189.68 573.645L1189.77 573.199ZM1197.68 566.555H1200.87L1200.6 567.832C1201.28 567.27 1201.91 566.867 1202.51 566.625C1203.1 566.383 1203.74 566.262 1204.42 566.262C1205.72 566.262 1206.77 566.711 1207.56 567.609C1208.36 568.508 1208.75 569.848 1208.75 571.629C1208.75 573.871 1208.07 575.766 1206.7 577.312C1205.53 578.633 1204.14 579.293 1202.54 579.293C1200.89 579.293 1199.65 578.625 1198.8 577.289L1197.46 583.746H1194.09L1197.68 566.555ZM1199.71 573.691C1199.71 574.66 1199.94 575.414 1200.41 575.953C1200.89 576.484 1201.45 576.75 1202.09 576.75C1202.64 576.75 1203.18 576.551 1203.69 576.152C1204.21 575.746 1204.63 575.078 1204.97 574.148C1205.31 573.211 1205.48 572.344 1205.48 571.547C1205.48 570.617 1205.26 569.906 1204.82 569.414C1204.37 568.914 1203.8 568.664 1203.12 568.664C1202.48 568.664 1201.89 568.895 1201.36 569.355C1200.84 569.809 1200.43 570.48 1200.14 571.371C1199.85 572.254 1199.71 573.027 1199.71 573.691ZM1221.97 573.82H1213.54C1213.53 573.953 1213.52 574.055 1213.52 574.125C1213.52 574.953 1213.76 575.621 1214.23 576.129C1214.7 576.637 1215.28 576.891 1215.96 576.891C1217.08 576.891 1217.95 576.312 1218.57 575.156L1221.59 575.66C1221 576.871 1220.21 577.781 1219.23 578.391C1218.25 578.992 1217.16 579.293 1215.94 579.293C1214.27 579.293 1212.91 578.766 1211.86 577.711C1210.81 576.648 1210.29 575.246 1210.29 573.504C1210.29 571.801 1210.76 570.285 1211.71 568.957C1213 567.16 1214.84 566.262 1217.23 566.262C1218.75 566.262 1219.96 566.734 1220.86 567.68C1221.76 568.617 1222.21 569.934 1222.21 571.629C1222.21 572.441 1222.13 573.172 1221.97 573.82ZM1219.14 571.77C1219.14 571.621 1219.15 571.508 1219.15 571.43C1219.15 570.508 1218.94 569.816 1218.53 569.355C1218.11 568.895 1217.56 568.664 1216.86 568.664C1216.17 568.664 1215.54 568.926 1214.99 569.449C1214.44 569.973 1214.07 570.746 1213.88 571.77H1219.14ZM1225.63 566.555H1228.77L1228.27 568.969C1229.44 567.164 1230.71 566.262 1232.07 566.262C1232.56 566.262 1233.08 566.383 1233.63 566.625L1232.34 569.379C1232.04 569.27 1231.71 569.215 1231.37 569.215C1230.79 569.215 1230.2 569.434 1229.6 569.871C1229.01 570.309 1228.54 570.895 1228.21 571.629C1227.87 572.355 1227.54 573.512 1227.21 575.098L1226.39 579H1223.03L1225.63 566.555ZM1242.88 579H1239.34L1242.94 561.82H1250.57C1251.88 561.82 1252.9 561.957 1253.62 562.23C1254.36 562.496 1254.95 562.988 1255.39 563.707C1255.85 564.426 1256.07 565.297 1256.07 566.32C1256.07 567.781 1255.64 568.988 1254.76 569.941C1253.89 570.887 1252.56 571.473 1250.79 571.699C1251.24 572.105 1251.67 572.641 1252.07 573.305C1252.86 574.648 1253.73 576.547 1254.7 579H1250.91C1250.6 578.031 1250 576.52 1249.11 574.465C1248.63 573.355 1248.11 572.609 1247.57 572.227C1247.23 572 1246.64 571.887 1245.81 571.887H1244.37L1242.88 579ZM1244.91 569.309H1246.78C1248.68 569.309 1249.94 569.195 1250.55 568.969C1251.18 568.742 1251.67 568.387 1252.02 567.902C1252.37 567.418 1252.55 566.91 1252.55 566.379C1252.55 565.754 1252.29 565.285 1251.79 564.973C1251.47 564.785 1250.8 564.691 1249.76 564.691H1245.87L1244.91 569.309ZM1261.34 570.082L1258.05 569.801C1258.43 568.691 1259.08 567.824 1260.01 567.199C1260.95 566.574 1262.19 566.262 1263.73 566.262C1265.33 566.262 1266.51 566.586 1267.28 567.234C1268.04 567.875 1268.43 568.66 1268.43 569.59C1268.43 569.965 1268.39 570.363 1268.32 570.785C1268.26 571.207 1268.03 572.316 1267.63 574.113C1267.3 575.598 1267.14 576.637 1267.14 577.23C1267.14 577.762 1267.23 578.352 1267.42 579H1264.15C1264.02 578.547 1263.93 578.078 1263.9 577.594C1263.41 578.141 1262.84 578.562 1262.2 578.859C1261.56 579.148 1260.92 579.293 1260.27 579.293C1259.24 579.293 1258.39 578.957 1257.71 578.285C1257.04 577.605 1256.71 576.734 1256.71 575.672C1256.71 574.484 1257.07 573.535 1257.81 572.824C1258.55 572.113 1259.87 571.684 1261.77 571.535C1263.37 571.402 1264.44 571.242 1264.98 571.055C1265.12 570.586 1265.19 570.211 1265.19 569.93C1265.19 569.57 1265.05 569.27 1264.76 569.027C1264.47 568.785 1264.04 568.664 1263.47 568.664C1262.87 568.664 1262.39 568.789 1262.04 569.039C1261.7 569.281 1261.46 569.629 1261.34 570.082ZM1264.54 573.199C1264.33 573.254 1264.06 573.305 1263.73 573.352C1262.04 573.555 1260.94 573.852 1260.42 574.242C1260.05 574.523 1259.87 574.902 1259.87 575.379C1259.87 575.77 1260.01 576.102 1260.29 576.375C1260.57 576.641 1260.95 576.773 1261.41 576.773C1261.91 576.773 1262.39 576.652 1262.84 576.41C1263.29 576.16 1263.62 575.844 1263.84 575.461C1264.07 575.07 1264.27 574.465 1264.44 573.645L1264.54 573.199ZM1270.79 569.051L1271.31 566.555H1272.95L1273.36 564.562L1277.21 562.242L1276.31 566.555H1278.36L1277.85 569.051H1275.79L1274.7 574.266C1274.5 575.211 1274.4 575.75 1274.4 575.883C1274.4 576.141 1274.48 576.344 1274.65 576.492C1274.81 576.633 1275.11 576.703 1275.54 576.703C1275.69 576.703 1276.06 576.676 1276.65 576.621L1276.12 579.117C1275.55 579.234 1274.95 579.293 1274.34 579.293C1273.16 579.293 1272.29 579.066 1271.75 578.613C1271.21 578.152 1270.95 577.516 1270.95 576.703C1270.95 576.32 1271.09 575.438 1271.38 574.055L1272.42 569.051H1270.79ZM1290.06 573.82H1281.62C1281.61 573.953 1281.61 574.055 1281.61 574.125C1281.61 574.953 1281.84 575.621 1282.31 576.129C1282.79 576.637 1283.37 576.891 1284.05 576.891C1285.16 576.891 1286.04 576.312 1286.66 575.156L1289.67 575.66C1289.09 576.871 1288.3 577.781 1287.32 578.391C1286.34 578.992 1285.24 579.293 1284.02 579.293C1282.35 579.293 1280.99 578.766 1279.95 577.711C1278.9 576.648 1278.38 575.246 1278.38 573.504C1278.38 571.801 1278.85 570.285 1279.79 568.957C1281.08 567.16 1282.92 566.262 1285.31 566.262C1286.84 566.262 1288.05 566.734 1288.95 567.68C1289.84 568.617 1290.29 569.934 1290.29 571.629C1290.29 572.441 1290.21 573.172 1290.06 573.82ZM1287.22 571.77C1287.23 571.621 1287.23 571.508 1287.23 571.43C1287.23 570.508 1287.03 569.816 1286.61 569.355C1286.2 568.895 1285.64 568.664 1284.95 568.664C1284.25 568.664 1283.63 568.926 1283.07 569.449C1282.53 569.973 1282.16 570.746 1281.96 571.77H1287.22Z" fill="#22052C"/>
<defs>
<clipPath id="clip0_17_1303">
<rect width="848" height="582" fill="white" transform="translate(175 14)"/>
</clipPath>
</defs>
</svg>
